<?xml version="1.0" encoding="UTF-8"?>
<svg xmlns="http://www.w3.org/2000/svg" viewBox="0 0 64 64" role="img" aria-label="Debian">
  <defs>
    <linearGradient id="bg" x1="10" y1="8" x2="54" y2="56" gradientUnits="userSpaceOnUse">
      <stop stop-color="#a70f42"/>
      <stop offset="1" stop-color="#31152b"/>
    </linearGradient>
    <radialGradient id="glow" cx="0" cy="0" r="1" gradientUnits="userSpaceOnUse" gradientTransform="translate(44 16) rotate(122) scale(33 27)">
      <stop stop-color="#ffb4cf" stop-opacity="0.72"/>
      <stop offset="0.58" stop-color="#ffb4cf" stop-opacity="0.12"/>
      <stop offset="1" stop-color="#ffb4cf" stop-opacity="0"/>
    </radialGradient>
    <filter id="soft-shadow" x="-20%" y="-16%" width="140%" height="140%" color-interpolation-filters="sRGB">
      <feDropShadow dx="0" dy="4" stdDeviation="4" flood-color="#020812" flood-opacity="0.25"/>
    </filter>
  </defs>
  <rect x="4" y="4" width="56" height="56" rx="14" fill="url(#bg)"/>
  <rect x="4" y="4" width="56" height="56" rx="14" fill="url(#glow)"/>
  <rect x="4.5" y="4.5" width="55" height="55" rx="13.5" fill="none" stroke="#ffffff" stroke-opacity="0.13"/>
  <g filter="url(#soft-shadow)" color="#ff74a6">
    <path d="M43.4 18.3c-5.9-5.1-17.2-3.6-23.1 3.3-6.5 7.6-4.8 19.5 4 24.6 7.5 4.4 18.4 2.5 22.7-4.8 3.6-6.1.3-13.3-6.4-14.1-5.7-.7-10.1 3.7-9 7.4.6 2 2.8 2.9 4.9 2.2" fill="none" stroke="#ff74a6" stroke-linecap="round" stroke-width="5.6"/>
    <path d="M42.7 18.1c3.3 3.2 4.4 7.2 3.2 10.2" fill="none" stroke="#ff74a6" stroke-linecap="round" stroke-width="4" opacity="0.52"/>
  </g>
</svg>
