<?xml version="1.0" encoding="UTF-8"?>
<svg xmlns="http://www.w3.org/2000/svg" viewBox="0 0 64 64" role="img" aria-label="Fedora">
  <defs>
    <linearGradient id="bg" x1="10" y1="8" x2="54" y2="56" gradientUnits="userSpaceOnUse">
      <stop stop-color="#295abc"/>
      <stop offset="1" stop-color="#12295c"/>
    </linearGradient>
    <radialGradient id="glow" cx="0" cy="0" r="1" gradientUnits="userSpaceOnUse" gradientTransform="translate(44 16) rotate(122) scale(33 27)">
      <stop stop-color="#aad5ff" stop-opacity="0.72"/>
      <stop offset="0.58" stop-color="#aad5ff" stop-opacity="0.12"/>
      <stop offset="1" stop-color="#aad5ff" stop-opacity="0"/>
    </radialGradient>
    <filter id="soft-shadow" x="-20%" y="-16%" width="140%" height="140%" color-interpolation-filters="sRGB">
      <feDropShadow dx="0" dy="4" stdDeviation="4" flood-color="#020812" flood-opacity="0.25"/>
    </filter>
  </defs>
  <rect x="4" y="4" width="56" height="56" rx="14" fill="url(#bg)"/>
  <rect x="4" y="4" width="56" height="56" rx="14" fill="url(#glow)"/>
  <rect x="4.5" y="4.5" width="55" height="55" rx="13.5" fill="none" stroke="#ffffff" stroke-opacity="0.13"/>
  <g filter="url(#soft-shadow)" color="#87c2ff">
    <path d="M33 12c-11.6 0-21 9.4-21 21 0 10.5 7.7 19 18 20.7V41h-5.4c-5.1 0-9.3-4.1-9.3-9.2s4.2-9.2 9.3-9.2H30v-2.1c0-4.7 3.8-8.5 8.5-8.5H33Z" fill="#87c2ff" opacity="0.95"/>
    <path d="M30 22.6h8.2c4.9 0 8.8 4 8.8 8.9s-3.9 8.9-8.8 8.9H36v12.8C45.4 50.7 52 42.4 52 33c0-9.9-7.2-18.1-16.7-19.7A5.8 5.8 0 0 0 30 19v3.6Zm0 8.2h-5.4a1 1 0 1 0 0 2H30v-2Zm6 2h2.2a1.3 1.3 0 1 0 0-2.6H36v2.6Z" fill="#111820" opacity="0.62"/>
  </g>
</svg>
