<?xml version="1.0" encoding="UTF-8"?>
<svg xmlns="http://www.w3.org/2000/svg" viewBox="0 0 64 64" role="img" aria-label="Kali Linux">
  <defs>
    <linearGradient id="bg" x1="10" y1="8" x2="54" y2="56" gradientUnits="userSpaceOnUse">
      <stop stop-color="#347ed6"/>
      <stop offset="1" stop-color="#132851"/>
    </linearGradient>
    <radialGradient id="glow" cx="0" cy="0" r="1" gradientUnits="userSpaceOnUse" gradientTransform="translate(44 16) rotate(122) scale(33 27)">
      <stop stop-color="#bde2ff" stop-opacity="0.72"/>
      <stop offset="0.58" stop-color="#bde2ff" stop-opacity="0.12"/>
      <stop offset="1" stop-color="#bde2ff" stop-opacity="0"/>
    </radialGradient>
    <filter id="soft-shadow" x="-20%" y="-16%" width="140%" height="140%" color-interpolation-filters="sRGB">
      <feDropShadow dx="0" dy="4" stdDeviation="4" flood-color="#020812" flood-opacity="0.25"/>
    </filter>
  </defs>
  <rect x="4" y="4" width="56" height="56" rx="14" fill="url(#bg)"/>
  <rect x="4" y="4" width="56" height="56" rx="14" fill="url(#glow)"/>
  <rect x="4.5" y="4.5" width="55" height="55" rx="13.5" fill="none" stroke="#ffffff" stroke-opacity="0.13"/>
  <g filter="url(#soft-shadow)" color="#8dcfff">
    <path d="M12 39c12.5-11.8 26.8-17.9 43-18.5-4.3 3.6-7.8 7.7-10.5 12.5 4.8.4 8.2 1.6 10.3 3.8-9.2.2-16.4 2.2-21.7 6.1-4.3 3.2-9.4 4.5-15.1 4l9.4-7.4C22 38.8 16.9 38.6 12 39Z" fill="#8dcfff"/>
    <path d="M33 28.4c-4.8 2.5-9.2 5.4-13.3 8.8" stroke="#111820" stroke-linecap="round" stroke-width="3.8" opacity="0.34"/>
  </g>
</svg>
