<?xml version="1.0" encoding="UTF-8"?>
<svg xmlns="http://www.w3.org/2000/svg" viewBox="0 0 64 64" role="img" aria-label="openSUSE">
  <defs>
    <linearGradient id="bg" x1="10" y1="8" x2="54" y2="56" gradientUnits="userSpaceOnUse">
      <stop stop-color="#6eb72f"/>
      <stop offset="1" stop-color="#143f38"/>
    </linearGradient>
    <radialGradient id="glow" cx="0" cy="0" r="1" gradientUnits="userSpaceOnUse" gradientTransform="translate(44 16) rotate(122) scale(33 27)">
      <stop stop-color="#d4ff9c" stop-opacity="0.72"/>
      <stop offset="0.58" stop-color="#d4ff9c" stop-opacity="0.12"/>
      <stop offset="1" stop-color="#d4ff9c" stop-opacity="0"/>
    </radialGradient>
    <filter id="soft-shadow" x="-20%" y="-16%" width="140%" height="140%" color-interpolation-filters="sRGB">
      <feDropShadow dx="0" dy="4" stdDeviation="4" flood-color="#020812" flood-opacity="0.25"/>
    </filter>
  </defs>
  <rect x="4" y="4" width="56" height="56" rx="14" fill="url(#bg)"/>
  <rect x="4" y="4" width="56" height="56" rx="14" fill="url(#glow)"/>
  <rect x="4.5" y="4.5" width="55" height="55" rx="13.5" fill="none" stroke="#ffffff" stroke-opacity="0.13"/>
  <g filter="url(#soft-shadow)" color="#b5f982">
    <path d="M16 35c2.7-10 11.3-16.2 22.1-15.1 6.8.7 11.8 4.2 14.4 9.1-3.5-1.5-7.8-1.6-12.8-.1-5.3 1.6-9.5 4.7-12.5 9.3" fill="none" stroke="#b5f982" stroke-linecap="round" stroke-width="5.4"/>
    <circle cx="42" cy="31.5" r="4.4" fill="#b5f982"/>
    <path d="M18 41c6 5.4 17 6 25.5.3" fill="none" stroke="#b5f982" stroke-linecap="round" stroke-width="4.8" opacity="0.68"/>
  </g>
</svg>
